Coordinates
version=1
nRows=11
nColumns=36
inDegrees=yes

Units are S.I. units (second, meters, Newtons, ...)
If the header above contains a line with 'inDegrees', this indicates whether rotational values are in degrees (yes) or radians (no).

endheader
time	pelvis_tilt	pelvis_list	pelvis_rotation	pelvis_tx	pelvis_ty	pelvis_tz	hip_flexion_r	hip_adduction_r	hip_rotation_r	knee_angle_r	knee_angle_r_beta	ankle_angle_r	subtalar_angle_r	mtp_angle_r	hip_flexion_l	hip_adduction_l	hip_rotation_l	knee_angle_l	knee_angle_l_beta	ankle_angle_l	subtalar_angle_l	mtp_angle_l	lumbar_extension	lumbar_bending	lumbar_rotation	arm_flex_r	arm_add_r	arm_rot_r	elbow_flex_r	pro_sup_r	arm_flex_l	arm_add_l	arm_rot_l	elbow_flex_l	pro_sup_l
      0.00000000	      2.39678038	     -1.45490146	      1.07591248	      0.40724802	      0.90078125	     -0.10746042	     -1.68843656	     -1.28153731	      1.73504064	      5.02698467	      0.08773743	      4.34459727	    -14.59774714	     -4.91310221	     -1.67880410	     -4.90202474	      1.58812457	      4.43842209	      0.07746508	      7.88238255	     -4.45529139	     -4.91310221	     -6.67324805	      0.71240829	     -2.13970890	      7.47960879	     -9.24214852	     36.04454498	     26.50651789	     67.65270141	      1.44684859	    -10.08790846	     29.10581226	     27.01100476	     61.06816490
      0.01666670	      1.86369992	     -1.20267881	      1.30446424	      0.40839395	      0.89674149	     -0.10736150	     -1.84168627	     -1.05731211	      2.85255440	      3.98566728	      0.06956302	      7.06744502	    -12.94329080	     -5.16562499	     -1.42386465	     -4.35272587	      2.31103841	      4.07841688	      0.07118180	      8.04049297	     -4.65427432	     -5.16562499	     -4.85170628	      0.28032763	     -2.02890995	      7.11832453	     -9.58467203	     37.51917604	     27.09865117	     68.43590042	      1.44230364	    -10.57271370	     31.39128491	     27.27557321	     61.84823587
      0.03333330	      0.92800515	     -0.96897733	      0.97032608	      0.41271769	      0.89206104	     -0.10798006	     -1.26232694	     -1.26744502	      2.69017365	      3.46806435	      0.06052914	      7.36761566	    -13.83200396	     -5.23411552	     -0.56399112	     -3.97320394	      1.75274810	      4.16522537	      0.07269690	      8.29003405	     -4.51265215	     -5.23411552	     -3.32188479	     -0.13635750	     -1.59675257	      6.59259672	     -9.71818715	     37.99738117	     27.78247277	     69.04875019	      1.45798762	    -11.21217618	     32.27904095	     27.69633696	     62.27853345
      0.05000000	      0.98450718	     -0.76411140	      0.99821830	      0.41054103	      0.90252110	     -0.10877517	     -1.38683043	     -1.54539547	      2.51303824	      3.21098935	      0.05604234	      7.49789125	    -13.68408754	     -5.43315414	     -1.00046032	     -3.68544990	      1.81900910	      3.50864704	      0.06123744	      7.95753666	     -4.46308469	     -5.43315414	     -3.36940351	     -0.44334968	     -1.48281338	      6.51891190	     -9.45419044	     37.73033911	     27.21934885	     68.92168360	      1.73048413	    -11.04960811	     32.49797776	     26.69681278	     62.43913954
      0.06666670	      1.55424342	     -0.82349007	      0.80589546	      0.41397641	      0.89330756	     -0.10897156	     -2.15115732	     -1.48955158	      2.79893057	      3.11053279	      0.05428904	      7.72401066	    -14.06130653	     -5.88576886	     -1.99636137	     -3.74106943	      1.89339705	      3.03223201	      0.05292243	      8.34163644	     -4.71386483	     -5.88576886	     -3.95935066	     -0.30024465	     -1.01140101	      6.19585286	    -10.08556168	     38.12684019	     28.62373345	     70.08998826	      1.99431868	    -11.30924612	     34.50132281	     27.08399818	     63.70496732
      0.08333330	      1.79305542	     -0.74121311	      0.71259225	      0.41246235	      0.89555079	     -0.10822578	     -2.40715088	     -1.57154301	      2.75898537	      3.22710734	      0.05632365	      8.04937295	    -14.25201860	     -6.08660186	     -2.32029032	     -3.62155820	      1.94594131	      2.96268157	      0.05170855	      8.40972559	     -5.10266953	     -6.08660186	     -4.17962614	     -0.41395982	     -0.81782847	      6.01244458	     -9.98596860	     37.34473623	     28.83931905	     69.70931358	      2.00426271	    -11.21128690	     33.85143226	     26.96627007	     63.59030043
      0.10000000	      1.97954908	     -0.64664250	      0.55875611	      0.41251644	      0.89589011	     -0.10718983	     -2.58855114	     -1.67895275	      2.98628248	      3.25141793	      0.05674795	      8.30273150	    -14.42380619	     -6.21406975	     -2.53664726	     -3.55117680	      1.84303384	      2.96174969	      0.05169228	      8.46772907	     -5.30021006	     -6.21406975	     -4.30767135	     -0.52123678	     -0.59791899	      5.91474019	     -9.94690052	     36.99125623	     29.02126916	     69.79694758	      2.00788411	    -11.16411042	     33.36926997	     26.91218741	     63.65690161
      0.11666670	      2.08964620	     -0.58926415	      0.46961178	      0.41231967	      0.89851984	     -0.10584545	     -2.78893489	     -1.70424783	      3.06245265	      3.08727815	      0.05388317	      8.11742682	    -14.57229183	     -6.31524970	     -2.72060897	     -3.54175308	      1.79579879	      2.85828900	      0.04988655	      8.28928881	     -5.41129435	     -6.31524970	     -4.33215539	     -0.65279400	     -0.41186535	      5.79802990	     -9.82471307	     36.68462773	     29.08551569	     69.91902495	      2.03794322	    -11.12063616	     32.79106269	     26.78746541	     63.72818496
      0.13333330	      2.15944087	     -0.57421219	      0.42040290	      0.41192207	      0.89480206	     -0.10678818	     -2.86230856	     -1.73797902	      3.09241284	      3.02271097	      0.05275626	      8.10972365	    -14.63334611	     -6.35561234	     -2.74639536	     -3.51643767	      1.80876314	      2.87198895	      0.05012566	      8.25948351	     -5.62822909	     -6.35561234	     -4.47231494	     -0.71545941	     -0.40384958	      5.75097941	     -9.77606778	     36.44519839	     29.38065863	     69.73022091	      2.03706361	    -11.20491743	     32.44774375	     26.93282519	     63.65781965
      0.15000000	      2.28211582	     -0.55597919	      0.40177823	      0.41084298	      0.89795401	     -0.10494834	     -3.02051832	     -1.70689032	      3.33437785	      2.87658466	      0.05020587	      7.98848470	    -14.77602798	     -6.45664351	     -2.87334550	     -3.52129438	      1.91956197	      2.82707184	      0.04934171	      7.89438630	     -5.87716752	     -6.45664351	     -4.62184832	     -0.77151511	     -0.31075768	      5.75238797	     -9.68101218	     36.28957411	     29.35117560	     70.02311307	      2.08805160	    -11.14801692	     31.85068828	     26.83669351	     63.83581912
      0.16666670	      2.28103729	     -0.55991881	      0.36881395	      0.41118596	      0.89521605	     -0.10520970	     -2.98835095	     -1.67144790	      3.45897005	      2.85096768	      0.04975877	      7.93721761	    -14.93958317	     -6.52236909	     -2.87140567	     -3.56144640	      1.93265915	      2.82631149	      0.04932844	      7.84819343	     -5.95911916	     -6.52236909	     -4.61295296	     -0.76951366	     -0.28902967	      5.71914408	     -9.70339623	     36.30725561	     29.57893294	     70.21768467	      2.04729829	    -11.25560777	     31.58772171	     26.99520664	     63.98411707
